<?xml version="1.0" standalone="no"?>
<!DOCTYPE svg PUBLIC "-//W3C//DTD SVG 20010904//EN"
 "http://www.w3.org/TR/2001/REC-SVG-20010904/DTD/svg10.dtd">
<svg version="1.0" xmlns="http://www.w3.org/2000/svg"
 width="512.000000pt" height="512.000000pt" viewBox="0 0 512.000000 512.000000"
 preserveAspectRatio="xMidYMid meet">

<g transform="translate(0.000000,512.000000) scale(0.100000,-0.100000)"
fill="#000000" stroke="none">
<path d="M2315 5109 c-485 -50 -943 -235 -1334 -537 -111 -85 -348 -322 -433
-433 -158 -203 -309 -474 -394 -704 -47 -128 -107 -367 -130 -520 -26 -168
-26 -541 0 -710 23 -151 83 -391 131 -521 85 -231 235 -500 393 -703 81 -105
310 -336 412 -417 207 -163 488 -322 724 -409 130 -48 370 -108 521 -131 148
-22 532 -26 670 -6 482 69 891 241 1265 531 104 80 335 309 416 411 161 205
324 492 409 724 48 130 108 370 131 521 14 90 18 179 18 355 0 176 -4 265 -18
355 -23 151 -83 391 -131 521 -87 236 -246 517 -409 724 -81 102 -312 331
-417 412 -363 281 -762 452 -1219 523 -126 19 -477 28 -605 14z m455 -300
c416 -38 825 -198 1160 -456 115 -89 150 -119 150 -132 0 -18 -101 -120 -193
-194 -174 -141 -445 -303 -713 -426 -137 -63 -405 -173 -409 -169 -1 2 -33 57
-70 123 -121 214 -264 438 -404 630 -71 99 -303 389 -376 472 -55 62 -62 56
106 96 248 60 499 79 749 56z m-1088 -342 c272 -311 506 -636 713 -989 65
-111 80 -145 70 -151 -29 -16 -395 -116 -553 -152 -196 -43 -456 -88 -647
-110 -161 -19 -640 -31 -800 -20 l-107 7 6 40 c4 21 26 99 50 173 159 481 476
895 909 1184 72 48 236 141 247 140 3 0 53 -55 112 -122z m2760 -661 c217
-324 345 -705 374 -1110 l7 -99 -34 7 c-431 88 -879 87 -1329 -4 -80 -16 -178
-38 -218 -49 l-73 -19 -10 26 c-51 133 -133 332 -186 447 -35 77 -65 144 -66
148 -1 4 58 33 132 63 523 214 941 464 1176 704 l80 81 33 -38 c19 -21 70 -92
114 -157z m-1755 -892 c90 -194 196 -465 186 -473 -4 -4 -63 -29 -130 -55
-160 -62 -426 -193 -587 -290 -255 -152 -452 -302 -649 -495 -203 -199 -336
-373 -440 -578 -28 -56 -55 -103 -59 -103 -10 0 -144 146 -211 230 -332 414
-514 955 -495 1470 3 72 7 132 9 133 2 2 40 0 84 -4 118 -11 581 -10 720 1
448 38 949 136 1350 263 77 25 144 44 149 43 5 -1 38 -65 73 -142z m1838 -568
c61 -9 146 -25 190 -34 l80 -18 -3 -58 c-3 -80 -44 -254 -92 -398 -163 -487
-514 -928 -960 -1205 -109 -67 -150 -86 -150 -68 0 49 -44 435 -66 575 -49
322 -141 727 -223 994 -17 54 -31 102 -31 106 0 20 408 99 610 119 139 14 514
6 645 -13z m-1507 -311 c141 -469 224 -931 277 -1546 l5 -66 -87 -26 c-232
-69 -395 -92 -658 -91 -225 0 -335 12 -535 61 -219 53 -489 169 -672 288 l-87
56 18 52 c126 364 524 778 1047 1085 199 117 602 304 644 299 10 -2 26 -40 48
-112z"/>
</g>
</svg>
