<svg width="340" height="27" viewBox="0 0 340 27" fill="none" xmlns="http://www.w3.org/2000/svg">
<path d="M20.58 1.852V20H16.94V8.196L12.078 20H9.322L4.434 8.196V20H0.794V1.852H4.928L10.7 15.346L16.472 1.852H20.58ZM30.5748 20.234C29.1881 20.234 27.9401 19.9307 26.8308 19.324C25.7214 18.7 24.8461 17.8247 24.2048 16.698C23.5808 15.5713 23.2688 14.2713 23.2688 12.798C23.2688 11.3247 23.5894 10.0247 24.2308 8.898C24.8894 7.77133 25.7821 6.90467 26.9088 6.298C28.0354 5.674 29.2921 5.362 30.6788 5.362C32.0654 5.362 33.3221 5.674 34.4488 6.298C35.5754 6.90467 36.4594 7.77133 37.1008 8.898C37.7594 10.0247 38.0888 11.3247 38.0888 12.798C38.0888 14.2713 37.7508 15.5713 37.0748 16.698C36.4161 17.8247 35.5148 18.7 34.3708 19.324C33.2441 19.9307 31.9788 20.234 30.5748 20.234ZM30.5748 17.062C31.2334 17.062 31.8488 16.906 32.4208 16.594C33.0101 16.2647 33.4781 15.7793 33.8248 15.138C34.1714 14.4967 34.3448 13.7167 34.3448 12.798C34.3448 11.4287 33.9808 10.38 33.2528 9.652C32.5421 8.90667 31.6668 8.534 30.6268 8.534C29.5868 8.534 28.7114 8.90667 28.0008 9.652C27.3074 10.38 26.9608 11.4287 26.9608 12.798C26.9608 14.1673 27.2988 15.2247 27.9748 15.97C28.6681 16.698 29.5348 17.062 30.5748 17.062ZM39.8228 12.746C39.8228 11.29 40.1088 9.99867 40.6808 8.872C41.2702 7.74533 42.0675 6.87867 43.0728 6.272C44.0782 5.66533 45.1962 5.362 46.4268 5.362C47.3628 5.362 48.2555 5.57 49.1048 5.986C49.9542 6.38467 50.6302 6.922 51.1328 7.598V0.76H54.8248V20H51.1328V17.868C50.6822 18.5787 50.0495 19.1507 49.2348 19.584C48.4202 20.0173 47.4755 20.234 46.4008 20.234C45.1875 20.234 44.0782 19.922 43.0728 19.298C42.0675 18.674 41.2702 17.7987 40.6808 16.672C40.1088 15.528 39.8228 14.2193 39.8228 12.746ZM51.1588 12.798C51.1588 11.914 50.9855 11.16 50.6388 10.536C50.2922 9.89467 49.8242 9.40933 49.2348 9.08C48.6455 8.73333 48.0128 8.56 47.3368 8.56C46.6608 8.56 46.0368 8.72467 45.4648 9.054C44.8928 9.38333 44.4248 9.86867 44.0608 10.51C43.7142 11.134 43.5408 11.8793 43.5408 12.746C43.5408 13.6127 43.7142 14.3753 44.0608 15.034C44.4248 15.6753 44.8928 16.1693 45.4648 16.516C46.0542 16.8627 46.6782 17.036 47.3368 17.036C48.0128 17.036 48.6455 16.8713 49.2348 16.542C49.8242 16.1953 50.2922 15.71 50.6388 15.086C50.9855 14.4447 51.1588 13.682 51.1588 12.798ZM63.8919 20.234C62.7133 20.234 61.6559 20.026 60.7199 19.61C59.7839 19.1767 59.0386 18.596 58.4839 17.868C57.9466 17.14 57.6519 16.334 57.5999 15.45H61.2659C61.3353 16.0047 61.6039 16.464 62.0719 16.828C62.5573 17.192 63.1553 17.374 63.8659 17.374C64.5593 17.374 65.0966 17.2353 65.4779 16.958C65.8766 16.6807 66.0759 16.3253 66.0759 15.892C66.0759 15.424 65.8333 15.0773 65.3479 14.852C64.8799 14.6093 64.1259 14.3493 63.0859 14.072C62.0113 13.812 61.1273 13.5433 60.4339 13.266C59.7579 12.9887 59.1686 12.564 58.6659 11.992C58.1806 11.42 57.9379 10.6487 57.9379 9.678C57.9379 8.88067 58.1633 8.15267 58.6139 7.494C59.0819 6.83533 59.7406 6.31533 60.5899 5.934C61.4566 5.55267 62.4706 5.362 63.6319 5.362C65.3479 5.362 66.7173 5.79533 67.7399 6.662C68.7626 7.51133 69.3259 8.664 69.4299 10.12H65.9459C65.8939 9.548 65.6513 9.09733 65.2179 8.768C64.8019 8.42133 64.2386 8.248 63.5279 8.248C62.8693 8.248 62.3579 8.36933 61.9939 8.612C61.6473 8.85467 61.4739 9.19267 61.4739 9.626C61.4739 10.1113 61.7166 10.484 62.2019 10.744C62.6873 10.9867 63.4413 11.238 64.4639 11.498C65.5039 11.758 66.3619 12.0267 67.0379 12.304C67.7139 12.5813 68.2946 13.0147 68.7799 13.604C69.2826 14.176 69.5426 14.9387 69.5599 15.892C69.5599 16.724 69.3259 17.4693 68.8579 18.128C68.4073 18.7867 67.7486 19.3067 66.8819 19.688C66.0326 20.052 65.0359 20.234 63.8919 20.234ZM85.9379 12.486C85.9379 13.006 85.9032 13.474 85.8339 13.89H75.3039C75.3906 14.93 75.7546 15.7447 76.3959 16.334C77.0372 16.9233 77.8259 17.218 78.7619 17.218C80.1139 17.218 81.0759 16.6373 81.6479 15.476H85.5739C85.1579 16.8627 84.3606 18.0067 83.1819 18.908C82.0032 19.792 80.5559 20.234 78.8399 20.234C77.4532 20.234 76.2052 19.9307 75.0959 19.324C74.0039 18.7 73.1459 17.8247 72.5219 16.698C71.9152 15.5713 71.6119 14.2713 71.6119 12.798C71.6119 11.3073 71.9152 9.99867 72.5219 8.872C73.1286 7.74533 73.9779 6.87867 75.0699 6.272C76.1619 5.66533 77.4186 5.362 78.8399 5.362C80.2092 5.362 81.4312 5.65667 82.5059 6.246C83.5979 6.83533 84.4386 7.676 85.0279 8.768C85.6346 9.84267 85.9379 11.082 85.9379 12.486ZM82.1679 11.446C82.1506 10.51 81.8126 9.76467 81.1539 9.21C80.4952 8.638 79.6892 8.352 78.7359 8.352C77.8346 8.352 77.0719 8.62933 76.4479 9.184C75.8412 9.72133 75.4686 10.4753 75.3299 11.446H82.1679ZM96.5768 5.388C98.2928 5.388 99.6794 5.934 100.737 7.026C101.794 8.10067 102.323 9.60867 102.323 11.55V20H98.6828V12.044C98.6828 10.9 98.3968 10.0247 97.8248 9.418C97.2528 8.794 96.4728 8.482 95.4848 8.482C94.4794 8.482 93.6821 8.794 93.0928 9.418C92.5208 10.0247 92.2348 10.9 92.2348 12.044V20H88.5948V5.596H92.2348V7.39C92.7201 6.766 93.3354 6.28067 94.0808 5.934C94.8434 5.57 95.6754 5.388 96.5768 5.388ZM111.096 10.9C111.096 9.11467 111.494 7.52 112.292 6.116C113.106 4.69467 114.207 3.594 115.594 2.814C116.998 2.01667 118.566 1.618 120.3 1.618C122.328 1.618 124.104 2.138 125.63 3.178C127.155 4.218 128.221 5.65667 128.828 7.494H124.642C124.226 6.62733 123.636 5.97733 122.874 5.544C122.128 5.11067 121.262 4.894 120.274 4.894C119.216 4.894 118.272 5.14533 117.44 5.648C116.625 6.13333 115.984 6.82667 115.516 7.728C115.065 8.62933 114.84 9.68667 114.84 10.9C114.84 12.096 115.065 13.1533 115.516 14.072C115.984 14.9733 116.625 15.6753 117.44 16.178C118.272 16.6633 119.216 16.906 120.274 16.906C121.262 16.906 122.128 16.6893 122.874 16.256C123.636 15.8053 124.226 15.1467 124.642 14.28H128.828C128.221 16.1347 127.155 17.582 125.63 18.622C124.122 19.6447 122.345 20.156 120.3 20.156C118.566 20.156 116.998 19.766 115.594 18.986C114.207 18.1887 113.106 17.088 112.292 15.684C111.494 14.28 111.096 12.6853 111.096 10.9ZM145.535 5.596V20H141.869V18.18C141.401 18.804 140.785 19.298 140.023 19.662C139.277 20.0087 138.463 20.182 137.579 20.182C136.452 20.182 135.455 19.948 134.589 19.48C133.722 18.9947 133.037 18.2927 132.535 17.374C132.049 16.438 131.807 15.3287 131.807 14.046V5.596H135.447V13.526C135.447 14.67 135.733 15.554 136.305 16.178C136.877 16.7847 137.657 17.088 138.645 17.088C139.65 17.088 140.439 16.7847 141.011 16.178C141.583 15.554 141.869 14.67 141.869 13.526V5.596H145.535ZM152.766 7.832C153.234 7.06933 153.841 6.47133 154.586 6.038C155.349 5.60467 156.215 5.388 157.186 5.388V9.21H156.224C155.08 9.21 154.213 9.47867 153.624 10.016C153.052 10.5533 152.766 11.4893 152.766 12.824V20H149.126V5.596H152.766V7.832ZM163.278 7.832C163.746 7.06933 164.352 6.47133 165.098 6.038C165.86 5.60467 166.727 5.388 167.698 5.388V9.21H166.736C165.592 9.21 164.725 9.47867 164.136 10.016C163.564 10.5533 163.278 11.4893 163.278 12.824V20H159.638V5.596H163.278V7.832ZM183.539 12.486C183.539 13.006 183.505 13.474 183.435 13.89H172.905C172.992 14.93 173.356 15.7447 173.997 16.334C174.639 16.9233 175.427 17.218 176.363 17.218C177.715 17.218 178.677 16.6373 179.249 15.476H183.175C182.759 16.8627 181.962 18.0067 180.783 18.908C179.605 19.792 178.157 20.234 176.441 20.234C175.055 20.234 173.807 19.9307 172.697 19.324C171.605 18.7 170.747 17.8247 170.123 16.698C169.517 15.5713 169.213 14.2713 169.213 12.798C169.213 11.3073 169.517 9.99867 170.123 8.872C170.73 7.74533 171.579 6.87867 172.671 6.272C173.763 5.66533 175.02 5.362 176.441 5.362C177.811 5.362 179.033 5.65667 180.107 6.246C181.199 6.83533 182.04 7.676 182.629 8.768C183.236 9.84267 183.539 11.082 183.539 12.486ZM179.769 11.446C179.752 10.51 179.414 9.76467 178.755 9.21C178.097 8.638 177.291 8.352 176.337 8.352C175.436 8.352 174.673 8.62933 174.049 9.184C173.443 9.72133 173.07 10.4753 172.931 11.446H179.769ZM194.178 5.388C195.894 5.388 197.281 5.934 198.338 7.026C199.396 8.10067 199.924 9.60867 199.924 11.55V20H196.284V12.044C196.284 10.9 195.998 10.0247 195.426 9.418C194.854 8.794 194.074 8.482 193.086 8.482C192.081 8.482 191.284 8.794 190.694 9.418C190.122 10.0247 189.836 10.9 189.836 12.044V20H186.196V5.596H189.836V7.39C190.322 6.766 190.937 6.28067 191.682 5.934C192.445 5.57 193.277 5.388 194.178 5.388ZM202.45 12.798C202.45 11.3073 202.753 10.0073 203.36 8.898C203.966 7.77133 204.807 6.90467 205.882 6.298C206.956 5.674 208.187 5.362 209.574 5.362C211.359 5.362 212.832 5.81267 213.994 6.714C215.172 7.598 215.961 8.846 216.36 10.458H212.434C212.226 9.834 211.87 9.34867 211.368 9.002C210.882 8.638 210.276 8.456 209.548 8.456C208.508 8.456 207.684 8.83733 207.078 9.6C206.471 10.3453 206.168 11.4113 206.168 12.798C206.168 14.1673 206.471 15.2333 207.078 15.996C207.684 16.7413 208.508 17.114 209.548 17.114C211.021 17.114 211.983 16.4553 212.434 15.138H216.36C215.961 16.698 215.172 17.9373 213.994 18.856C212.815 19.7747 211.342 20.234 209.574 20.234C208.187 20.234 206.956 19.9307 205.882 19.324C204.807 18.7 203.966 17.8333 203.36 16.724C202.753 15.5973 202.45 14.2887 202.45 12.798ZM232.806 5.596L223.888 26.812H220.014L223.134 19.636L217.362 5.596H221.444L225.162 15.658L228.932 5.596H232.806ZM253.314 1.852V4.79H248.478V20H244.838V4.79H240.002V1.852H253.314ZM259.61 7.832C260.078 7.06933 260.684 6.47133 261.43 6.038C262.192 5.60467 263.059 5.388 264.03 5.388V9.21H263.068C261.924 9.21 261.057 9.47867 260.468 10.016C259.896 10.5533 259.61 11.4893 259.61 12.824V20H255.97V5.596H259.61V7.832ZM265.545 12.746C265.545 11.29 265.831 9.99867 266.403 8.872C266.993 7.74533 267.782 6.87867 268.77 6.272C269.775 5.66533 270.893 5.362 272.124 5.362C273.198 5.362 274.134 5.57867 274.932 6.012C275.746 6.44533 276.396 6.99133 276.882 7.65V5.596H280.548V20H276.882V17.894C276.414 18.57 275.764 19.1333 274.932 19.584C274.117 20.0173 273.172 20.234 272.098 20.234C270.884 20.234 269.775 19.922 268.77 19.298C267.782 18.674 266.993 17.7987 266.403 16.672C265.831 15.528 265.545 14.2193 265.545 12.746ZM276.882 12.798C276.882 11.914 276.708 11.16 276.362 10.536C276.015 9.89467 275.547 9.40933 274.958 9.08C274.368 8.73333 273.736 8.56 273.06 8.56C272.384 8.56 271.76 8.72467 271.188 9.054C270.616 9.38333 270.148 9.86867 269.784 10.51C269.437 11.134 269.264 11.8793 269.264 12.746C269.264 13.6127 269.437 14.3753 269.784 15.034C270.148 15.6753 270.616 16.1693 271.188 16.516C271.777 16.8627 272.401 17.036 273.06 17.036C273.736 17.036 274.368 16.8713 274.958 16.542C275.547 16.1953 276.015 15.71 276.362 15.086C276.708 14.4447 276.882 13.682 276.882 12.798ZM283.167 12.798C283.167 11.3073 283.47 10.0073 284.077 8.898C284.683 7.77133 285.524 6.90467 286.599 6.298C287.673 5.674 288.904 5.362 290.291 5.362C292.076 5.362 293.549 5.81267 294.711 6.714C295.889 7.598 296.678 8.846 297.077 10.458H293.151C292.943 9.834 292.587 9.34867 292.085 9.002C291.599 8.638 290.993 8.456 290.265 8.456C289.225 8.456 288.401 8.83733 287.795 9.6C287.188 10.3453 286.885 11.4113 286.885 12.798C286.885 14.1673 287.188 15.2333 287.795 15.996C288.401 16.7413 289.225 17.114 290.265 17.114C291.738 17.114 292.7 16.4553 293.151 15.138H297.077C296.678 16.698 295.889 17.9373 294.711 18.856C293.532 19.7747 292.059 20.234 290.291 20.234C288.904 20.234 287.673 19.9307 286.599 19.324C285.524 18.7 284.683 17.8333 284.077 16.724C283.47 15.5973 283.167 14.2887 283.167 12.798ZM308.271 20L303.383 13.864V20H299.743V0.76H303.383V11.706L308.219 5.596H312.951L306.607 12.824L313.003 20H308.271ZM328.317 12.486C328.317 13.006 328.282 13.474 328.213 13.89H317.683C317.769 14.93 318.133 15.7447 318.775 16.334C319.416 16.9233 320.205 17.218 321.141 17.218C322.493 17.218 323.455 16.6373 324.027 15.476H327.953C327.537 16.8627 326.739 18.0067 325.561 18.908C324.382 19.792 322.935 20.234 321.219 20.234C319.832 20.234 318.584 19.9307 317.475 19.324C316.383 18.7 315.525 17.8247 314.901 16.698C314.294 15.5713 313.991 14.2713 313.991 12.798C313.991 11.3073 314.294 9.99867 314.901 8.872C315.507 7.74533 316.357 6.87867 317.449 6.272C318.541 5.66533 319.797 5.362 321.219 5.362C322.588 5.362 323.81 5.65667 324.885 6.246C325.977 6.83533 326.817 7.676 327.407 8.768C328.013 9.84267 328.317 11.082 328.317 12.486ZM324.547 11.446C324.529 10.51 324.191 9.76467 323.533 9.21C322.874 8.638 322.068 8.352 321.115 8.352C320.213 8.352 319.451 8.62933 318.827 9.184C318.22 9.72133 317.847 10.4753 317.709 11.446H324.547ZM334.614 7.832C335.082 7.06933 335.688 6.47133 336.434 6.038C337.196 5.60467 338.063 5.388 339.034 5.388V9.21H338.072C336.928 9.21 336.061 9.47867 335.472 10.016C334.9 10.5533 334.614 11.4893 334.614 12.824V20H330.974V5.596H334.614V7.832Z" fill="url(#paint0_linear_2_2341)"/>
<defs>
<linearGradient id="paint0_linear_2_2341" x1="-1" y1="22.5882" x2="369.872" y2="30.6099" gradientUnits="userSpaceOnUse">
<stop stop-color="#00CE2C"/>
<stop offset="0.492615" stop-color="#AEDF23"/>
<stop offset="1" stop-color="#A3DC00"/>
</linearGradient>
</defs>
</svg>
